<svg width="61" height="26" viewBox="0 0 61 26" fill="none" xmlns="http://www.w3.org/2000/svg">
<g clip-path="url(#clip0_0_237)">
<path d="M0.541718 20.2227H12.756V16.7984H4.90973V0.94415H0.541718V20.2227Z" fill="black"/>
<path d="M20.7879 17.5525C18.577 17.5525 17.3367 15.9347 17.3367 13.2384V13.0227C17.3367 10.3264 18.6309 8.76254 20.7879 8.76254C22.9719 8.76254 24.2392 10.3803 24.2392 13.0766V13.2654C24.2392 15.9347 22.9719 17.5525 20.7879 17.5525ZM20.761 20.5184C24.9942 20.5184 28.2028 17.6873 28.2028 13.2384V13.0227C28.2028 8.62772 25.0211 5.7966 20.7879 5.7966C16.5547 5.7966 13.3461 8.68165 13.3461 13.1036V13.3193C13.3461 17.7143 16.5547 20.5184 20.761 20.5184Z" fill="black"/>
<path d="M36.2705 25.4257C40.9082 25.4257 43.6854 23.2956 43.7123 19.1163V6.12016H39.8296V8.22328C39.0208 6.79423 37.6456 5.7966 35.3538 5.7966C31.8486 5.7966 29.1523 8.62772 29.1523 12.6722V12.8609C29.1523 17.0402 31.8755 19.6017 35.2998 19.6017C37.376 19.6017 39.0477 18.3614 39.8296 16.9863V19.1163C39.8296 21.3273 38.6433 22.5676 36.2705 22.5676C34.2753 22.5676 33.3855 21.7587 33.1428 20.5184H29.2601C29.6376 23.4304 31.7138 25.4257 36.2705 25.4257ZM36.4593 16.6627C34.5179 16.6627 33.1428 15.2067 33.1428 12.8609V12.6452C33.1428 10.3264 34.3561 8.76254 36.5401 8.76254C38.6702 8.76254 39.9375 10.2185 39.9375 12.6182V12.807C39.9375 15.2067 38.5085 16.6627 36.4593 16.6627Z" fill="black"/>
<path d="M52.927 17.5525C50.716 17.5525 49.4757 15.9347 49.4757 13.2384V13.0227C49.4757 10.3264 50.77 8.76254 52.927 8.76254C55.111 8.76254 56.3783 10.3803 56.3783 13.0766V13.2654C56.3783 15.9347 55.111 17.5525 52.927 17.5525ZM52.9 20.5184C57.1332 20.5184 60.3418 17.6873 60.3418 13.2384V13.0227C60.3418 8.62772 57.1602 5.7966 52.927 5.7966C48.6938 5.7966 45.4852 8.68165 45.4852 13.1036V13.3193C45.4852 17.7143 48.6938 20.5184 52.9 20.5184Z" fill="black"/>
</g>
<defs>
<clipPath id="clip0_0_237">
<rect width="60.5063" height="25.9312" fill="white" transform="scale(1.00266)"/>
</clipPath>
</defs>
</svg>
