<svg width="112" height="19" viewBox="0 0 112 19" fill="none" xmlns="http://www.w3.org/2000/svg">
<g clip-path="url(#clip0_0_142)">
<path d="M8.75811 0.591229C9.09 -0.197077 10.2204 -0.197076 10.5523 0.591232L12.5111 5.24396C12.6511 5.57629 12.9675 5.80336 13.3306 5.83212L18.415 6.23482C19.2765 6.30305 19.6258 7.36511 18.9695 7.92054L15.0957 11.1987C14.819 11.4329 14.6981 11.8004 14.7826 12.1504L15.9662 17.052C16.1667 17.8825 15.2522 18.5389 14.5147 18.0939L10.1616 15.4672C9.85071 15.2796 9.45968 15.2796 9.14876 15.4672L4.79572 18.0939C4.05819 18.5389 3.14369 17.8825 3.34421 17.052L4.52773 12.1504C4.61226 11.8004 4.49142 11.4329 4.21474 11.1987L0.340888 7.92054C-0.315452 7.36511 0.0338587 6.30305 0.895318 6.23482L5.9798 5.83212C6.34298 5.80336 6.65934 5.57629 6.79925 5.24396L8.75811 0.591229Z" fill="black"/>
<path d="M31.9306 0.591229C32.2625 -0.197077 33.3928 -0.197076 33.7247 0.591232L35.6835 5.24396C35.8235 5.57629 36.1399 5.80336 36.5031 5.83212L41.5875 6.23482C42.4489 6.30305 42.7982 7.36511 42.1419 7.92054L38.2681 11.1987C37.9915 11.4329 37.8706 11.8004 37.9551 12.1504L39.1386 17.052C39.3391 17.8825 38.4247 18.5389 37.6871 18.0939L33.3341 15.4672C33.0232 15.2796 32.6321 15.2796 32.3212 15.4672L27.9682 18.0939C27.2306 18.5389 26.3161 17.8825 26.5167 17.052L27.7002 12.1504C27.7847 11.8004 27.6639 11.4329 27.3872 11.1987L23.5133 7.92054C22.857 7.36511 23.2063 6.30305 24.0678 6.23482L29.1523 5.83212C29.5154 5.80336 29.8318 5.57629 29.9717 5.24396L31.9306 0.591229Z" fill="black"/>
<path d="M55.103 0.591229C55.4348 -0.197077 56.5652 -0.197076 56.8971 0.591232L58.8559 5.24396C58.9959 5.57629 59.3123 5.80336 59.6755 5.83212L64.7599 6.23482C65.6213 6.30305 65.9706 7.36511 65.3143 7.92054L61.4405 11.1987C61.1639 11.4329 61.0429 11.8004 61.1275 12.1504L62.311 17.052C62.5115 17.8825 61.597 18.5389 60.8595 18.0939L56.5065 15.4672C56.1956 15.2796 55.8045 15.2796 55.4936 15.4672L51.1406 18.0939C50.403 18.5389 49.4885 17.8825 49.6891 17.052L50.8726 12.1504C50.9571 11.8004 50.8363 11.4329 50.5596 11.1987L46.6857 7.92054C46.0294 7.36511 46.3787 6.30305 47.2402 6.23482L52.3247 5.83212C52.6878 5.80336 53.0042 5.57629 53.1441 5.24396L55.103 0.591229Z" fill="black"/>
<path d="M78.2754 0.591229C78.6073 -0.197077 79.7377 -0.197076 80.0696 0.591232L82.0284 5.24396C82.1684 5.57629 82.4848 5.80336 82.8479 5.83212L87.9323 6.23482C88.7938 6.30305 89.1431 7.36511 88.4868 7.92054L84.613 11.1987C84.3363 11.4329 84.2154 11.8004 84.2999 12.1504L85.4835 17.052C85.684 17.8825 84.7695 18.5389 84.032 18.0939L79.6789 15.4672C79.368 15.2796 78.977 15.2796 78.6661 15.4672L74.313 18.0939C73.5755 18.5389 72.661 17.8825 72.8615 17.052L74.045 12.1504C74.1296 11.8004 74.0087 11.4329 73.732 11.1987L69.8582 7.92054C69.2018 7.36511 69.5512 6.30305 70.4126 6.23482L75.4971 5.83212C75.8603 5.80336 76.1766 5.57629 76.3166 5.24396L78.2754 0.591229Z" fill="black"/>
<path d="M101.448 0.591229C101.78 -0.197077 102.91 -0.197076 103.242 0.591232L105.201 5.24396C105.341 5.57629 105.657 5.80336 106.02 5.83212L111.105 6.23482C111.966 6.30305 112.315 7.36511 111.659 7.92054L107.785 11.1987C107.509 11.4329 107.388 11.8004 107.472 12.1504L108.656 17.052C108.856 17.8825 107.942 18.5389 107.204 18.0939L102.851 15.4672C102.54 15.2796 102.149 15.2796 101.838 15.4672L97.4854 18.0939C96.7479 18.5389 95.8334 17.8825 96.0339 17.052L97.2174 12.1504C97.302 11.8004 97.1811 11.4329 96.9044 11.1987L93.0306 7.92054C92.3742 7.36511 92.7236 6.30305 93.585 6.23482L98.6695 5.83212C99.0327 5.80336 99.349 5.57629 99.4889 5.24396L101.448 0.591229Z" fill="black"/>
</g>
<defs>
<clipPath id="clip0_0_142">
<rect width="111.408" height="18.1412" fill="white" transform="scale(1.00531)"/>
</clipPath>
</defs>
</svg>
