<svg width="41" height="41" viewBox="0 0 41 41" fill="none" xmlns="http://www.w3.org/2000/svg">
<path fill-rule="evenodd" clip-rule="evenodd" d="M35.4138 12.1634L35.1746 11.7363C34.8661 11.2198 34.431 10.7906 33.9104 10.4892L22.4475 3.87795C21.9285 3.57685 21.3393 3.41776 20.7392 3.4167H20.2438C19.6436 3.41776 19.0544 3.57685 18.5355 3.87795L7.07254 10.5063C6.55487 10.8057 6.12486 11.2357 5.82546 11.7534L5.5863 12.1804C5.2852 12.6995 5.12611 13.2887 5.12505 13.8888V27.1284C5.12611 27.7285 5.2852 28.3177 5.5863 28.8367L5.82546 29.2638C6.1326 29.7754 6.56088 30.2037 7.07254 30.5109L18.5525 37.1221C19.069 37.4294 19.6599 37.589 20.2609 37.5833H20.7392C21.3393 37.5823 21.9285 37.4233 22.4475 37.1221L33.9104 30.4938C34.4332 30.2011 34.8649 29.7694 35.1575 29.2467L35.4138 28.8196C35.7112 28.2991 35.8701 27.7109 35.875 27.1113V13.8717C35.874 13.2716 35.7149 12.6824 35.4138 12.1634ZM20.2438 6.83336H20.7392L30.75 12.6075L20.5 18.5184L10.25 12.6075L20.2438 6.83336ZM22.2084 33.3125L32.2021 27.5384L32.4584 27.1113V15.5629L22.2084 21.4909V33.3125Z" fill="black"/>
</svg>
