<svg width="17" height="18" viewBox="0 0 17 18" fill="none" xmlns="http://www.w3.org/2000/svg">
<path d="M14.0402 5.74802C15.6749 5.74802 17 4.46129 17 2.87402C17 1.28674 15.6749 0 14.0402 0C12.4056 0 11.0804 1.28674 11.0804 2.87402C11.0804 4.46129 12.4056 5.74802 14.0402 5.74802Z" fill="#C5C5C5"/>
<path d="M2.95979 5.74802C4.59443 5.74802 5.91956 4.46129 5.91956 2.87402C5.91956 1.28674 4.59443 0 2.95979 0C1.32513 0 0 1.28674 0 2.87402C0 4.46129 1.32513 5.74802 2.95979 5.74802Z" fill="#C5C5C5"/>
<path d="M14.0402 17.6907C15.6749 17.6907 17 16.404 17 14.8167C17 13.2294 15.6749 11.9427 14.0402 11.9427C12.4056 11.9427 11.0804 13.2294 11.0804 14.8167C11.0804 16.404 12.4056 17.6907 14.0402 17.6907Z" fill="#C5C5C5"/>
<path d="M2.95979 17.6907C4.59443 17.6907 5.91956 16.404 5.91956 14.8167C5.91956 13.2294 4.59443 11.9427 2.95979 11.9427C1.32513 11.9427 0 13.2294 0 14.8167C0 16.404 1.32513 17.6907 2.95979 17.6907Z" fill="#C5C5C5"/>
</svg>
