<svg width="19" height="19" viewBox="0 0 19 19" fill="none" xmlns="http://www.w3.org/2000/svg">
<path d="M18.747 1.47418L15.9033 4.31753L17.8834 6.29739C18.0042 6.41816 18.0864 6.57202 18.1198 6.73952C18.1531 6.90703 18.136 7.08064 18.0705 7.23842C18.0052 7.3962 17.8945 7.53105 17.7525 7.62594C17.6104 7.72083 17.4435 7.77148 17.2727 7.77151H12.0909C11.8619 7.77149 11.6422 7.68052 11.4802 7.51858C11.3183 7.35665 11.2273 7.13702 11.2273 6.90801V1.72704C11.2273 1.55627 11.2779 1.38933 11.3729 1.24733C11.4678 1.10534 11.6026 0.994667 11.7604 0.92931C11.9182 0.863953 12.0919 0.846846 12.2594 0.880151C12.427 0.913456 12.5809 0.995679 12.7016 1.11642L14.6818 3.09628L17.5256 0.252928C17.6059 0.17274 17.701 0.109131 17.8058 0.0657336C17.9106 0.0223361 18.0229 0 18.1363 0C18.2497 0 18.362 0.0223361 18.4669 0.0657336C18.5717 0.109131 18.6668 0.17274 18.747 0.252928C18.8272 0.333116 18.8909 0.428313 18.9343 0.533084C18.9777 0.637855 19 0.750147 19 0.863551C19 0.976954 18.9777 1.08925 18.9343 1.19402C18.8909 1.29879 18.8272 1.39399 18.747 1.47418ZM6.90911 11.2255H1.72732C1.55651 11.2255 1.38955 11.2761 1.24753 11.371C1.10551 11.4659 0.994826 11.6008 0.929458 11.7585C0.864091 11.9163 0.846981 12.09 0.880292 12.2574C0.913602 12.425 0.995838 12.5789 1.1166 12.6996L3.09677 14.6794L0.252968 17.5228C0.172767 17.603 0.109148 17.6982 0.0657441 17.803C0.0223397 17.9077 0 18.02 0 18.1334C0 18.2468 0.0223397 18.3591 0.0657441 18.4639C0.109148 18.5687 0.172767 18.6639 0.252968 18.744C0.414941 18.906 0.634624 18.9969 0.863689 18.9969C0.97711 18.9969 1.08942 18.9747 1.19421 18.9313C1.299 18.8878 1.39421 18.8242 1.47441 18.744L4.31822 15.9007L6.29839 17.8806C6.41919 18.0013 6.57307 18.0835 6.7406 18.1169C6.90813 18.1502 7.08177 18.1331 7.23957 18.0676C7.39738 18.0023 7.53225 17.8916 7.62716 17.7496C7.72206 17.6076 7.77272 17.4407 7.77275 17.27V12.089C7.77274 11.86 7.68174 11.6403 7.51978 11.4784C7.35782 11.3165 7.13816 11.2255 6.90911 11.2255Z" fill="#C5C5C5"/>
</svg>
