<svg width="924" height="26" viewBox="0 0 924 26" fill="none" xmlns="http://www.w3.org/2000/svg">
<path d="M0 20.02H12.684V16.464H4.536V0H0V20.02Z" fill="black"/>
<path d="M21.0225 17.248C18.7265 17.248 17.4385 15.568 17.4385 12.768V12.544C17.4385 9.74399 18.7825 8.12 21.0225 8.12C23.2905 8.12 24.6065 9.79999 24.6065 12.6V12.796C24.6065 15.568 23.2905 17.248 21.0225 17.248ZM20.9945 20.328C25.3905 20.328 28.7225 17.388 28.7225 12.768V12.544C28.7225 7.98 25.4185 5.04 21.0225 5.04C16.6265 5.04 13.2945 8.036 13.2945 12.628V12.852C13.2945 17.416 16.6265 20.328 20.9945 20.328Z" fill="black"/>
<path d="M37.1004 25.424C41.9165 25.424 44.8004 23.212 44.8284 18.872V5.376H40.7964V7.56C39.9564 6.076 38.5284 5.04 36.1484 5.04C32.5084 5.04 29.7084 7.98 29.7084 12.18V12.376C29.7084 16.716 32.5364 19.376 36.0924 19.376C38.2484 19.376 39.9844 18.088 40.7964 16.66V18.872C40.7964 21.168 39.5644 22.456 37.1004 22.456C35.0285 22.456 34.1044 21.616 33.8524 20.328H29.8204C30.2124 23.352 32.3685 25.424 37.1004 25.424ZM37.2964 16.324C35.2804 16.324 33.8524 14.812 33.8524 12.376V12.152C33.8524 9.74399 35.1124 8.12 37.3804 8.12C39.5924 8.12 40.9084 9.63199 40.9084 12.124V12.32C40.9084 14.812 39.4244 16.324 37.2964 16.324Z" fill="black"/>
<path d="M54.3972 17.248C52.1012 17.248 50.8132 15.568 50.8132 12.768V12.544C50.8132 9.74399 52.1572 8.12 54.3972 8.12C56.6652 8.12 57.9812 9.79999 57.9812 12.6V12.796C57.9812 15.568 56.6652 17.248 54.3972 17.248ZM54.3692 20.328C58.7652 20.328 62.0972 17.388 62.0972 12.768V12.544C62.0972 7.98 58.7932 5.04 54.3972 5.04C50.0012 5.04 46.6692 8.036 46.6692 12.628V12.852C46.6692 17.416 50.0012 20.328 54.3692 20.328Z" fill="black"/>
</svg>
