<svg width="1140" height="54" viewBox="0 0 1140 54" fill="none" xmlns="http://www.w3.org/2000/svg">
<g clip-path="url(#clip0_5078_82754)">
<g filter="url(#filter0_d_5078_82754)">
<path d="M75.5032 35.5811H79.4972V28.7342H81.2337L85.4758 35.5811H89.7426L85.0541 28.0396C87.1379 27.4195 88.7008 26.0054 88.7008 23.3262V23.227C88.7008 19.5555 86.0464 17.8438 81.8539 17.8438H75.5032V35.5811ZM79.4972 26.0054V20.9199H81.7546C83.6897 20.9199 84.7812 21.5401 84.7812 23.351V23.4502C84.7812 25.162 83.7641 26.0054 81.7546 26.0054H79.4972Z" fill="black"/>
<path d="M96.5979 35.8539C100.145 35.8539 102.378 34.2911 102.8 31.4878H99.4011C99.1779 32.5793 98.3593 33.2988 96.6972 33.2988C94.7374 33.2988 93.5714 32.0584 93.4722 29.9002H102.825V28.9079C102.825 24.2688 99.8477 22.3091 96.4987 22.3091C92.728 22.3091 89.8254 24.9635 89.8254 29.0567V29.2551C89.8254 33.398 92.6783 35.8539 96.5979 35.8539ZM93.5218 27.6923C93.7946 25.8565 94.8862 24.7898 96.4987 24.7898C98.2104 24.7898 99.2027 25.7325 99.3268 27.6923H93.5218Z" fill="black"/>
<path d="M104.534 35.5811H108.107V16.7274H104.534V35.5811Z" fill="black"/>
<path d="M114.96 35.8539C117.094 35.8539 118.408 34.8616 119.078 33.5469V35.5811H122.65V22.6068H119.078V30.2226C119.078 32.1329 117.887 33.0755 116.374 33.0755C114.837 33.0755 114.116 32.232 114.116 30.4707V22.6068H110.545V30.9669C110.545 34.3655 112.43 35.8539 114.96 35.8539Z" fill="black"/>
<path d="M125.089 35.581H128.687V27.9156C128.687 26.1543 129.803 25.2611 131.192 25.2611C132.457 25.2611 133.226 26.0053 133.226 27.6675V35.581H136.799V27.9156C136.799 26.1543 137.915 25.2611 139.304 25.2611C140.594 25.2611 141.338 26.0053 141.338 27.6675V35.581H144.911V27.2706C144.911 23.8223 143.05 22.3091 140.643 22.3091C139.006 22.3091 137.32 23.0036 136.278 24.5666C135.657 23.0285 134.367 22.3091 132.656 22.3091C130.72 22.3091 129.331 23.3758 128.687 24.5913V22.6067H125.089V35.581Z" fill="black"/>
<path d="M153.217 35.8539C156.765 35.8539 158.998 34.2911 159.419 31.4878H156.02C155.797 32.5793 154.978 33.2988 153.316 33.2988C151.356 33.2988 150.191 32.0584 150.092 29.9002H159.444V28.9079C159.444 24.2688 156.467 22.3091 153.118 22.3091C149.347 22.3091 146.444 24.9635 146.444 29.0567V29.2551C146.444 33.398 149.297 35.8539 153.217 35.8539ZM150.141 27.6923C150.414 25.8565 151.506 24.7898 153.118 24.7898C154.83 24.7898 155.822 25.7325 155.946 27.6923H150.141Z" fill="black"/>
<path fill-rule="evenodd" clip-rule="evenodd" d="M61.7576 18.9048L61.5165 18.4741C61.2054 17.9533 60.7667 17.5204 60.2417 17.2165L48.6821 10.5495C48.1586 10.2459 47.5645 10.0854 46.9593 10.0844H46.4597C45.8546 10.0854 45.2604 10.2459 44.737 10.5495L33.1774 17.2338C32.6554 17.5356 32.2217 17.9693 31.9198 18.4914L31.6786 18.922C31.375 19.4454 31.2146 20.0396 31.2135 20.6447V33.996C31.2146 34.6011 31.375 35.1953 31.6786 35.7187L31.9198 36.1494C32.2296 36.6654 32.6614 37.0973 33.1774 37.407L44.7542 44.074C45.2751 44.3839 45.871 44.5448 46.477 44.5391H46.9593C47.5645 44.538 48.1586 44.3776 48.6821 44.074L60.2417 37.3898C60.7689 37.0947 61.2042 36.6595 61.4992 36.1322L61.7576 35.7015C62.0577 35.1765 62.2178 34.5833 62.2228 33.9788V20.6275C62.2218 20.0224 62.0613 19.4282 61.7576 18.9048ZM46.4597 13.5298H46.9593L57.0546 19.3526L46.7181 25.3133L36.3817 19.3526L46.4597 13.5298ZM48.4409 40.2324L58.5189 34.4095L58.7773 33.9789V22.3332L48.4409 28.311V40.2324Z" fill="black"/>
</g>
<g filter="url(#filter1_d_5078_82754)">
<path d="M265.684 23.9658C265.684 21.9997 263.778 19.9139 260.472 19.9139C256.759 19.9139 252.686 22.6324 252.056 28.0646C251.419 33.5565 254.839 35.9833 258.274 35.9833C261.709 35.9833 263.517 34.6451 265.353 32.8512C263.767 30.8545 261.723 31.7837 261.336 31.9782C260.908 32.1926 260.347 32.4891 259.207 32.4891C257.876 32.4891 256.526 31.8868 256.526 29.4156C265.035 28.6001 265.684 25.9332 265.684 23.9658ZM261.467 24.2951C261.412 24.9009 261.164 25.9496 256.858 26.5261C257.766 23.3014 259.498 23.0624 260.298 23.0624C261.048 23.0624 261.526 23.6436 261.467 24.2951ZM247.055 24.8188C247.055 24.8188 245.225 30.5581 245.083 31.0397C245.033 30.5581 243.694 20.2491 243.694 20.2491C240.577 20.2491 238.91 22.4637 238.031 24.8165C238.031 24.8165 235.805 30.5721 235.624 31.0537C235.614 30.6026 235.282 24.8763 235.282 24.8763C235.094 21.9985 232.467 20.2561 230.338 20.2561L232.898 35.8743C236.168 35.8637 237.919 33.6526 238.842 31.3045C238.842 31.3045 240.8 26.2261 240.881 25.9953C240.901 26.2156 242.289 35.8743 242.289 35.8743C245.562 35.8743 247.328 33.8038 248.278 31.54L252.87 20.2561C249.636 20.2561 247.934 22.4649 247.055 24.8188ZM277.704 19.8928C275.692 19.8928 274.142 20.9861 272.837 22.6019L272.839 22.5902L273.999 13.2057C271.32 13.2057 269.132 15.5375 268.716 18.9965L266.678 35.7524C268.223 35.7524 269.86 35.3036 270.744 34.1682C271.535 35.1841 272.71 35.9938 274.45 35.9938C278.967 35.9938 282.072 30.7432 282.072 25.8137C282.072 21.3154 279.883 19.8928 277.704 19.8928ZM277.289 27.9428C276.821 30.6987 275.289 32.557 273.806 32.557C272.31 32.557 271.679 31.8962 271.679 31.8962C271.958 29.4871 272.143 28.0095 272.688 26.737C273.231 25.4645 274.517 23.4339 275.862 23.4339C277.17 23.4339 277.758 25.188 277.289 27.9428ZM293.396 20.2573H290.233L290.249 20.0921C290.464 18.0274 290.959 16.9436 292.559 16.7772C293.653 16.6648 294.147 16.0964 294.262 15.4824C294.352 15.0008 294.658 13.2983 294.658 13.2983C288.314 13.262 286.326 16.0003 285.818 20.1624L285.807 20.2561L285.744 20.2585C284.714 20.2585 283.584 21.4244 283.386 22.9054L283.317 23.4502H285.426L283.655 38.1076L283.119 40.7416L283.337 40.7487C286.298 40.6362 288.203 38.3009 288.623 34.9006L290.006 23.4502H290.997C291.968 23.4502 293.108 22.4778 293.319 20.8525L293.396 20.2573ZM309.807 19.9855C306.163 19.9855 302.729 22.6676 301.673 26.887C300.618 31.1053 302.222 36.0863 307.577 36.0863C312.935 36.0863 316.013 30.8943 316.013 26.5835C316.013 22.2703 313.098 19.9855 309.807 19.9855ZM311.285 27.8174C311.096 29.7308 310.253 32.6215 307.947 32.6215C305.631 32.6215 305.96 29.2293 306.184 27.6193C306.425 25.8933 307.394 23.4502 309.458 23.4502C311.322 23.4502 311.498 25.6566 311.285 27.8174ZM334.009 24.8188C334.009 24.8188 332.178 30.5581 332.038 31.0397C331.987 30.5581 330.648 20.2491 330.648 20.2491C327.531 20.2491 325.865 22.4637 324.985 24.8165C324.985 24.8165 322.76 30.5721 322.579 31.0537C322.569 30.6026 322.237 24.8763 322.237 24.8763C322.048 21.9985 319.42 20.2561 317.292 20.2561L319.851 35.8743C323.122 35.8637 324.873 33.6526 325.797 31.3045C325.797 31.3045 327.755 26.2261 327.835 25.9953C327.856 26.2156 329.243 35.8743 329.243 35.8743C332.516 35.8743 334.282 33.8038 335.232 31.54L339.825 20.2561C336.59 20.2561 334.887 22.4649 334.009 24.8188ZM296.372 13.2983L293.717 34.7131L293.71 34.7095L293.171 37.3577L293.388 37.3647C296.247 37.3295 298.275 34.8209 298.657 31.6571L300.191 19.3656C300.656 15.6219 298.424 13.2983 296.372 13.2983Z" fill="black"/>
</g>
<g filter="url(#filter2_d_5078_82754)">
<path d="M455.503 35.5811H459.497V28.7342H461.234L465.476 35.5811H469.743L465.054 28.0396C467.138 27.4195 468.701 26.0054 468.701 23.3262V23.227C468.701 19.5555 466.046 17.8438 461.854 17.8438H455.503V35.5811ZM459.497 26.0054V20.9199H461.755C463.69 20.9199 464.781 21.5401 464.781 23.351V23.4502C464.781 25.162 463.764 26.0054 461.755 26.0054H459.497Z" fill="black"/>
<path d="M476.598 35.8539C480.145 35.8539 482.378 34.2911 482.8 31.4878H479.401C479.178 32.5793 478.359 33.2988 476.697 33.2988C474.737 33.2988 473.572 32.0584 473.472 29.9002H482.825V28.9079C482.825 24.2688 479.848 22.3091 476.499 22.3091C472.728 22.3091 469.826 24.9635 469.826 29.0567V29.2551C469.826 33.398 472.678 35.8539 476.598 35.8539ZM473.522 27.6923C473.795 25.8565 474.886 24.7898 476.499 24.7898C478.211 24.7898 479.203 25.7325 479.327 27.6923H473.522Z" fill="black"/>
<path d="M484.534 35.5811H488.107V16.7274H484.534V35.5811Z" fill="black"/>
<path d="M494.96 35.8539C497.094 35.8539 498.408 34.8616 499.078 33.5469V35.5811H502.65V22.6068H499.078V30.2226C499.078 32.1329 497.887 33.0755 496.374 33.0755C494.837 33.0755 494.116 32.232 494.116 30.4707V22.6068H490.544V30.9669C490.544 34.3655 492.43 35.8539 494.96 35.8539Z" fill="black"/>
<path d="M505.089 35.581H508.687V27.9156C508.687 26.1543 509.803 25.2611 511.192 25.2611C512.457 25.2611 513.226 26.0053 513.226 27.6675V35.581H516.799V27.9156C516.799 26.1543 517.915 25.2611 519.304 25.2611C520.594 25.2611 521.338 26.0053 521.338 27.6675V35.581H524.911V27.2706C524.911 23.8223 523.05 22.3091 520.643 22.3091C519.006 22.3091 517.32 23.0036 516.278 24.5666C515.657 23.0285 514.367 22.3091 512.656 22.3091C510.72 22.3091 509.331 23.3758 508.687 24.5913V22.6067H505.089V35.581Z" fill="black"/>
<path d="M533.217 35.8539C536.765 35.8539 538.998 34.2911 539.419 31.4878H536.02C535.797 32.5793 534.978 33.2988 533.316 33.2988C531.356 33.2988 530.191 32.0584 530.092 29.9002H539.444V28.9079C539.444 24.2688 536.467 22.3091 533.118 22.3091C529.347 22.3091 526.444 24.9635 526.444 29.0567V29.2551C526.444 33.398 529.297 35.8539 533.217 35.8539ZM530.141 27.6923C530.414 25.8565 531.506 24.7898 533.118 24.7898C534.83 24.7898 535.822 25.7325 535.946 27.6923H530.141Z" fill="black"/>
<path fill-rule="evenodd" clip-rule="evenodd" d="M441.758 18.9048L441.517 18.4741C441.205 17.9533 440.767 17.5204 440.242 17.2165L428.682 10.5495C428.159 10.2459 427.565 10.0854 426.959 10.0844H426.46C425.855 10.0854 425.261 10.2459 424.737 10.5495L413.177 17.2338C412.655 17.5356 412.222 17.9693 411.92 18.4914L411.679 18.922C411.375 19.4454 411.215 20.0396 411.214 20.6447V33.996C411.215 34.6011 411.375 35.1953 411.679 35.7187L411.92 36.1494C412.23 36.6654 412.662 37.0973 413.177 37.407L424.754 44.074C425.275 44.3839 425.871 44.5448 426.477 44.5391H426.959C427.565 44.538 428.159 44.3776 428.682 44.074L440.242 37.3898C440.769 37.0947 441.204 36.6595 441.499 36.1322L441.758 35.7015C442.058 35.1765 442.218 34.5833 442.223 33.9788V20.6275C442.222 20.0224 442.061 19.4282 441.758 18.9048ZM426.46 13.5298H426.959L437.055 19.3526L426.718 25.3133L416.382 19.3526L426.46 13.5298ZM428.441 40.2324L438.519 34.4095L438.777 33.9789V22.3332L428.441 28.311V40.2324Z" fill="black"/>
</g>
<g filter="url(#filter3_d_5078_82754)">
<path d="M645.684 23.9658C645.684 21.9997 643.778 19.9139 640.472 19.9139C636.759 19.9139 632.686 22.6324 632.056 28.0646C631.419 33.5565 634.839 35.9833 638.274 35.9833C641.709 35.9833 643.517 34.6451 645.353 32.8512C643.767 30.8545 641.723 31.7837 641.336 31.9782C640.908 32.1926 640.347 32.4891 639.207 32.4891C637.876 32.4891 636.526 31.8868 636.526 29.4156C645.035 28.6001 645.684 25.9332 645.684 23.9658ZM641.467 24.2951C641.412 24.9009 641.164 25.9496 636.858 26.5261C637.766 23.3014 639.498 23.0624 640.298 23.0624C641.048 23.0624 641.526 23.6436 641.467 24.2951ZM627.055 24.8188C627.055 24.8188 625.225 30.5581 625.083 31.0397C625.033 30.5581 623.694 20.2491 623.694 20.2491C620.577 20.2491 618.91 22.4637 618.031 24.8165C618.031 24.8165 615.805 30.5721 615.624 31.0537C615.614 30.6026 615.282 24.8763 615.282 24.8763C615.094 21.9985 612.467 20.2561 610.338 20.2561L612.898 35.8743C616.168 35.8637 617.919 33.6526 618.842 31.3045C618.842 31.3045 620.8 26.2261 620.881 25.9953C620.901 26.2156 622.289 35.8743 622.289 35.8743C625.562 35.8743 627.328 33.8038 628.278 31.54L632.87 20.2561C629.636 20.2561 627.934 22.4649 627.055 24.8188ZM657.704 19.8928C655.692 19.8928 654.142 20.9861 652.837 22.6019L652.839 22.5902L653.999 13.2057C651.32 13.2057 649.132 15.5375 648.716 18.9965L646.678 35.7524C648.223 35.7524 649.86 35.3036 650.744 34.1682C651.535 35.1841 652.71 35.9938 654.45 35.9938C658.967 35.9938 662.072 30.7432 662.072 25.8137C662.072 21.3154 659.883 19.8928 657.704 19.8928ZM657.289 27.9428C656.821 30.6987 655.289 32.557 653.806 32.557C652.31 32.557 651.679 31.8962 651.679 31.8962C651.958 29.4871 652.143 28.0095 652.688 26.737C653.231 25.4645 654.517 23.4339 655.862 23.4339C657.17 23.4339 657.758 25.188 657.289 27.9428ZM673.396 20.2573H670.233L670.249 20.0921C670.464 18.0274 670.959 16.9436 672.559 16.7772C673.653 16.6648 674.147 16.0964 674.262 15.4824C674.352 15.0008 674.658 13.2983 674.658 13.2983C668.314 13.262 666.326 16.0003 665.818 20.1624L665.807 20.2561L665.744 20.2585C664.714 20.2585 663.584 21.4244 663.386 22.9054L663.317 23.4502H665.426L663.655 38.1076L663.119 40.7416L663.337 40.7487C666.298 40.6362 668.203 38.3009 668.623 34.9006L670.006 23.4502H670.997C671.968 23.4502 673.108 22.4778 673.319 20.8525L673.396 20.2573ZM689.807 19.9855C686.163 19.9855 682.729 22.6676 681.673 26.887C680.618 31.1053 682.222 36.0863 687.577 36.0863C692.935 36.0863 696.013 30.8943 696.013 26.5835C696.013 22.2703 693.098 19.9855 689.807 19.9855ZM691.285 27.8174C691.096 29.7308 690.253 32.6215 687.947 32.6215C685.631 32.6215 685.96 29.2293 686.184 27.6193C686.425 25.8933 687.394 23.4502 689.458 23.4502C691.322 23.4502 691.498 25.6566 691.285 27.8174ZM714.009 24.8188C714.009 24.8188 712.178 30.5581 712.038 31.0397C711.987 30.5581 710.648 20.2491 710.648 20.2491C707.531 20.2491 705.865 22.4637 704.985 24.8165C704.985 24.8165 702.76 30.5721 702.579 31.0537C702.569 30.6026 702.237 24.8763 702.237 24.8763C702.048 21.9985 699.42 20.2561 697.292 20.2561L699.851 35.8743C703.122 35.8637 704.873 33.6526 705.797 31.3045C705.797 31.3045 707.755 26.2261 707.835 25.9953C707.856 26.2156 709.243 35.8743 709.243 35.8743C712.516 35.8743 714.282 33.8038 715.232 31.54L719.825 20.2561C716.59 20.2561 714.887 22.4649 714.009 24.8188ZM676.372 13.2983L673.717 34.7131L673.71 34.7095L673.171 37.3577L673.388 37.3647C676.247 37.3295 678.275 34.8209 678.657 31.6571L680.191 19.3656C680.656 15.6219 678.424 13.2983 676.372 13.2983Z" fill="black"/>
</g>
<g filter="url(#filter4_d_5078_82754)">
<path d="M835.503 35.5811H839.497V28.7342H841.234L845.476 35.5811H849.743L845.054 28.0396C847.138 27.4195 848.701 26.0054 848.701 23.3262V23.227C848.701 19.5555 846.046 17.8438 841.854 17.8438H835.503V35.5811ZM839.497 26.0054V20.9199H841.755C843.69 20.9199 844.781 21.5401 844.781 23.351V23.4502C844.781 25.162 843.764 26.0054 841.755 26.0054H839.497Z" fill="black"/>
<path d="M856.598 35.8539C860.145 35.8539 862.378 34.2911 862.8 31.4878H859.401C859.178 32.5793 858.359 33.2988 856.697 33.2988C854.737 33.2988 853.572 32.0584 853.472 29.9002H862.825V28.9079C862.825 24.2688 859.848 22.3091 856.499 22.3091C852.728 22.3091 849.826 24.9635 849.826 29.0567V29.2551C849.826 33.398 852.678 35.8539 856.598 35.8539ZM853.522 27.6923C853.795 25.8565 854.886 24.7898 856.499 24.7898C858.211 24.7898 859.203 25.7325 859.327 27.6923H853.522Z" fill="black"/>
<path d="M864.534 35.5811H868.107V16.7274H864.534V35.5811Z" fill="black"/>
<path d="M874.96 35.8539C877.094 35.8539 878.408 34.8616 879.078 33.5469V35.5811H882.65V22.6068H879.078V30.2226C879.078 32.1329 877.887 33.0755 876.374 33.0755C874.837 33.0755 874.116 32.232 874.116 30.4707V22.6068H870.544V30.9669C870.544 34.3655 872.43 35.8539 874.96 35.8539Z" fill="black"/>
<path d="M885.089 35.581H888.687V27.9156C888.687 26.1543 889.803 25.2611 891.192 25.2611C892.457 25.2611 893.226 26.0053 893.226 27.6675V35.581H896.799V27.9156C896.799 26.1543 897.915 25.2611 899.304 25.2611C900.594 25.2611 901.338 26.0053 901.338 27.6675V35.581H904.911V27.2706C904.911 23.8223 903.05 22.3091 900.643 22.3091C899.006 22.3091 897.32 23.0036 896.278 24.5666C895.657 23.0285 894.368 22.3091 892.656 22.3091C890.72 22.3091 889.331 23.3758 888.687 24.5913V22.6067H885.089V35.581Z" fill="black"/>
<path d="M913.217 35.8539C916.765 35.8539 918.998 34.2911 919.419 31.4878H916.02C915.797 32.5793 914.978 33.2988 913.316 33.2988C911.356 33.2988 910.191 32.0584 910.092 29.9002H919.444V28.9079C919.444 24.2688 916.467 22.3091 913.118 22.3091C909.347 22.3091 906.444 24.9635 906.444 29.0567V29.2551C906.444 33.398 909.297 35.8539 913.217 35.8539ZM910.141 27.6923C910.414 25.8565 911.506 24.7898 913.118 24.7898C914.83 24.7898 915.822 25.7325 915.946 27.6923H910.141Z" fill="black"/>
<path fill-rule="evenodd" clip-rule="evenodd" d="M821.758 18.9048L821.517 18.4741C821.206 17.9533 820.767 17.5204 820.242 17.2165L808.682 10.5495C808.159 10.2459 807.565 10.0854 806.959 10.0844H806.46C805.855 10.0854 805.261 10.2459 804.737 10.5495L793.178 17.2338C792.655 17.5356 792.222 17.9693 791.92 18.4914L791.679 18.922C791.375 19.4454 791.215 20.0396 791.214 20.6447V33.996C791.215 34.6011 791.375 35.1953 791.679 35.7187L791.92 36.1494C792.23 36.6654 792.662 37.0973 793.178 37.407L804.754 44.074C805.275 44.3839 805.871 44.5448 806.477 44.5391H806.959C807.565 44.538 808.159 44.3776 808.682 44.074L820.242 37.3898C820.769 37.0947 821.204 36.6595 821.499 36.1322L821.758 35.7015C822.058 35.1765 822.218 34.5833 822.223 33.9788V20.6275C822.222 20.0224 822.061 19.4282 821.758 18.9048ZM806.46 13.5298H806.959L817.055 19.3526L806.718 25.3133L796.382 19.3526L806.46 13.5298ZM808.441 40.2324L818.519 34.4095L818.777 33.9789V22.3332L808.441 28.311V40.2324Z" fill="black"/>
</g>
<g filter="url(#filter5_d_5078_82754)">
<path d="M1025.68 23.9658C1025.68 21.9997 1023.78 19.9139 1020.47 19.9139C1016.76 19.9139 1012.69 22.6324 1012.06 28.0646C1011.42 33.5565 1014.84 35.9833 1018.27 35.9833C1021.71 35.9833 1023.52 34.6451 1025.35 32.8512C1023.77 30.8545 1021.72 31.7837 1021.34 31.9782C1020.91 32.1926 1020.35 32.4891 1019.21 32.4891C1017.88 32.4891 1016.53 31.8868 1016.53 29.4156C1025.04 28.6001 1025.68 25.9332 1025.68 23.9658ZM1021.47 24.2951C1021.41 24.9009 1021.16 25.9496 1016.86 26.5261C1017.77 23.3014 1019.5 23.0624 1020.3 23.0624C1021.05 23.0624 1021.53 23.6436 1021.47 24.2951ZM1007.05 24.8188C1007.05 24.8188 1005.22 30.5581 1005.08 31.0397C1005.03 30.5581 1003.69 20.2491 1003.69 20.2491C1000.58 20.2491 998.91 22.4637 998.031 24.8165C998.031 24.8165 995.805 30.5721 995.624 31.0537C995.614 30.6026 995.282 24.8763 995.282 24.8763C995.094 21.9985 992.467 20.2561 990.338 20.2561L992.898 35.8743C996.168 35.8637 997.919 33.6526 998.842 31.3045C998.842 31.3045 1000.8 26.2261 1000.88 25.9953C1000.9 26.2156 1002.29 35.8743 1002.29 35.8743C1005.56 35.8743 1007.33 33.8038 1008.28 31.54L1012.87 20.2561C1009.64 20.2561 1007.93 22.4649 1007.05 24.8188ZM1037.7 19.8928C1035.69 19.8928 1034.14 20.9861 1032.84 22.6019L1032.84 22.5902L1034 13.2057C1031.32 13.2057 1029.13 15.5375 1028.72 18.9965L1026.68 35.7524C1028.22 35.7524 1029.86 35.3036 1030.74 34.1682C1031.53 35.1841 1032.71 35.9938 1034.45 35.9938C1038.97 35.9938 1042.07 30.7432 1042.07 25.8137C1042.07 21.3154 1039.88 19.8928 1037.7 19.8928ZM1037.29 27.9428C1036.82 30.6987 1035.29 32.557 1033.81 32.557C1032.31 32.557 1031.68 31.8962 1031.68 31.8962C1031.96 29.4871 1032.14 28.0095 1032.69 26.737C1033.23 25.4645 1034.52 23.4339 1035.86 23.4339C1037.17 23.4339 1037.76 25.188 1037.29 27.9428ZM1053.4 20.2573H1050.23L1050.25 20.0921C1050.46 18.0274 1050.96 16.9436 1052.56 16.7772C1053.65 16.6648 1054.15 16.0964 1054.26 15.4824C1054.35 15.0008 1054.66 13.2983 1054.66 13.2983C1048.31 13.262 1046.33 16.0003 1045.82 20.1624L1045.81 20.2561L1045.74 20.2585C1044.71 20.2585 1043.58 21.4244 1043.39 22.9054L1043.32 23.4502H1045.43L1043.66 38.1076L1043.12 40.7416L1043.34 40.7487C1046.3 40.6362 1048.2 38.3009 1048.62 34.9006L1050.01 23.4502H1051C1051.97 23.4502 1053.11 22.4778 1053.32 20.8525L1053.4 20.2573ZM1069.81 19.9855C1066.16 19.9855 1062.73 22.6676 1061.67 26.887C1060.62 31.1053 1062.22 36.0863 1067.58 36.0863C1072.94 36.0863 1076.01 30.8943 1076.01 26.5835C1076.01 22.2703 1073.1 19.9855 1069.81 19.9855ZM1071.28 27.8174C1071.1 29.7308 1070.25 32.6215 1067.95 32.6215C1065.63 32.6215 1065.96 29.2293 1066.18 27.6193C1066.42 25.8933 1067.39 23.4502 1069.46 23.4502C1071.32 23.4502 1071.5 25.6566 1071.28 27.8174ZM1094.01 24.8188C1094.01 24.8188 1092.18 30.5581 1092.04 31.0397C1091.99 30.5581 1090.65 20.2491 1090.65 20.2491C1087.53 20.2491 1085.86 22.4637 1084.99 24.8165C1084.99 24.8165 1082.76 30.5721 1082.58 31.0537C1082.57 30.6026 1082.24 24.8763 1082.24 24.8763C1082.05 21.9985 1079.42 20.2561 1077.29 20.2561L1079.85 35.8743C1083.12 35.8637 1084.87 33.6526 1085.8 31.3045C1085.8 31.3045 1087.75 26.2261 1087.84 25.9953C1087.86 26.2156 1089.24 35.8743 1089.24 35.8743C1092.52 35.8743 1094.28 33.8038 1095.23 31.54L1099.83 20.2561C1096.59 20.2561 1094.89 22.4649 1094.01 24.8188ZM1056.37 13.2983L1053.72 34.7131L1053.71 34.7095L1053.17 37.3577L1053.39 37.3647C1056.25 37.3295 1058.28 34.8209 1058.66 31.6571L1060.19 19.3656C1060.66 15.6219 1058.42 13.2983 1056.37 13.2983Z" fill="black"/>
</g>
</g>
<defs>
<filter id="filter0_d_5078_82754" x="0" y="-6" width="210" height="73.7833" filterUnits="userSpaceOnUse" color-interpolation-filters="sRGB">
<feFlood flood-opacity="0" result="BackgroundImageFix"/>
<feColorMatrix in="SourceAlpha" type="matrix" values="0 0 0 0 0 0 0 0 0 0 0 0 0 0 0 0 0 0 127 0" result="hardAlpha"/>
<feOffset dx="10" dy="4"/>
<feGaussianBlur stdDeviation="5"/>
<feComposite in2="hardAlpha" operator="out"/>
<feColorMatrix type="matrix" values="0 0 0 0 0 0 0 0 0 0 0 0 0 0 0 0 0 0 0.25 0"/>
<feBlend mode="normal" in2="BackgroundImageFix" result="effect1_dropShadow_5078_82754"/>
<feBlend mode="normal" in="SourceGraphic" in2="effect1_dropShadow_5078_82754" result="shape"/>
</filter>
<filter id="filter1_d_5078_82754" x="190" y="-2.15833" width="210" height="66.1" filterUnits="userSpaceOnUse" color-interpolation-filters="sRGB">
<feFlood flood-opacity="0" result="BackgroundImageFix"/>
<feColorMatrix in="SourceAlpha" type="matrix" values="0 0 0 0 0 0 0 0 0 0 0 0 0 0 0 0 0 0 127 0" result="hardAlpha"/>
<feOffset dx="10" dy="4"/>
<feGaussianBlur stdDeviation="5"/>
<feComposite in2="hardAlpha" operator="out"/>
<feColorMatrix type="matrix" values="0 0 0 0 0 0 0 0 0 0 0 0 0 0 0 0 0 0 0.25 0"/>
<feBlend mode="normal" in2="BackgroundImageFix" result="effect1_dropShadow_5078_82754"/>
<feBlend mode="normal" in="SourceGraphic" in2="effect1_dropShadow_5078_82754" result="shape"/>
</filter>
<filter id="filter2_d_5078_82754" x="380" y="-6" width="210" height="73.7833" filterUnits="userSpaceOnUse" color-interpolation-filters="sRGB">
<feFlood flood-opacity="0" result="BackgroundImageFix"/>
<feColorMatrix in="SourceAlpha" type="matrix" values="0 0 0 0 0 0 0 0 0 0 0 0 0 0 0 0 0 0 127 0" result="hardAlpha"/>
<feOffset dx="10" dy="4"/>
<feGaussianBlur stdDeviation="5"/>
<feComposite in2="hardAlpha" operator="out"/>
<feColorMatrix type="matrix" values="0 0 0 0 0 0 0 0 0 0 0 0 0 0 0 0 0 0 0.25 0"/>
<feBlend mode="normal" in2="BackgroundImageFix" result="effect1_dropShadow_5078_82754"/>
<feBlend mode="normal" in="SourceGraphic" in2="effect1_dropShadow_5078_82754" result="shape"/>
</filter>
<filter id="filter3_d_5078_82754" x="570" y="-2.15833" width="210" height="66.1" filterUnits="userSpaceOnUse" color-interpolation-filters="sRGB">
<feFlood flood-opacity="0" result="BackgroundImageFix"/>
<feColorMatrix in="SourceAlpha" type="matrix" values="0 0 0 0 0 0 0 0 0 0 0 0 0 0 0 0 0 0 127 0" result="hardAlpha"/>
<feOffset dx="10" dy="4"/>
<feGaussianBlur stdDeviation="5"/>
<feComposite in2="hardAlpha" operator="out"/>
<feColorMatrix type="matrix" values="0 0 0 0 0 0 0 0 0 0 0 0 0 0 0 0 0 0 0.25 0"/>
<feBlend mode="normal" in2="BackgroundImageFix" result="effect1_dropShadow_5078_82754"/>
<feBlend mode="normal" in="SourceGraphic" in2="effect1_dropShadow_5078_82754" result="shape"/>
</filter>
<filter id="filter4_d_5078_82754" x="760" y="-6" width="210" height="73.7833" filterUnits="userSpaceOnUse" color-interpolation-filters="sRGB">
<feFlood flood-opacity="0" result="BackgroundImageFix"/>
<feColorMatrix in="SourceAlpha" type="matrix" values="0 0 0 0 0 0 0 0 0 0 0 0 0 0 0 0 0 0 127 0" result="hardAlpha"/>
<feOffset dx="10" dy="4"/>
<feGaussianBlur stdDeviation="5"/>
<feComposite in2="hardAlpha" operator="out"/>
<feColorMatrix type="matrix" values="0 0 0 0 0 0 0 0 0 0 0 0 0 0 0 0 0 0 0.25 0"/>
<feBlend mode="normal" in2="BackgroundImageFix" result="effect1_dropShadow_5078_82754"/>
<feBlend mode="normal" in="SourceGraphic" in2="effect1_dropShadow_5078_82754" result="shape"/>
</filter>
<filter id="filter5_d_5078_82754" x="950" y="-2.15833" width="210" height="66.1" filterUnits="userSpaceOnUse" color-interpolation-filters="sRGB">
<feFlood flood-opacity="0" result="BackgroundImageFix"/>
<feColorMatrix in="SourceAlpha" type="matrix" values="0 0 0 0 0 0 0 0 0 0 0 0 0 0 0 0 0 0 127 0" result="hardAlpha"/>
<feOffset dx="10" dy="4"/>
<feGaussianBlur stdDeviation="5"/>
<feComposite in2="hardAlpha" operator="out"/>
<feColorMatrix type="matrix" values="0 0 0 0 0 0 0 0 0 0 0 0 0 0 0 0 0 0 0.25 0"/>
<feBlend mode="normal" in2="BackgroundImageFix" result="effect1_dropShadow_5078_82754"/>
<feBlend mode="normal" in="SourceGraphic" in2="effect1_dropShadow_5078_82754" result="shape"/>
</filter>
<clipPath id="clip0_5078_82754">
<rect width="1140" height="53.7833" fill="white"/>
</clipPath>
</defs>
</svg>
