<svg width="24" height="24" viewBox="0 0 24 24" fill="none" xmlns="http://www.w3.org/2000/svg">
<path d="M21.5929 7.20316C21.479 6.78056 21.2564 6.39517 20.9473 6.08533C20.6381 5.7755 20.2533 5.55203 19.8309 5.43717C18.2649 5.00717 11.9999 5.00017 11.9999 5.00017C11.9999 5.00017 5.73595 4.99317 4.16895 5.40417C3.74688 5.52431 3.36278 5.75094 3.05352 6.0623C2.74426 6.37366 2.52024 6.75928 2.40296 7.18216C1.98996 8.74816 1.98596 11.9962 1.98596 11.9962C1.98596 11.9962 1.98196 15.2601 2.39196 16.8101C2.62196 17.6671 3.29695 18.3441 4.15495 18.5751C5.73695 19.0051 11.9849 19.0121 11.9849 19.0121C11.9849 19.0121 18.2499 19.0191 19.8159 18.6091C20.2384 18.4945 20.6237 18.2715 20.9336 17.9623C21.2435 17.6531 21.4673 17.2684 21.5829 16.8461C21.9969 15.2811 21.9999 12.0342 21.9999 12.0342C21.9999 12.0342 22.0199 8.76916 21.5929 7.20316ZM9.99594 15.0051L10.0009 9.00516L15.2079 12.0102L9.99594 15.0051Z" fill="black"/>
</svg>
