<svg width="24" height="24" viewBox="0 0 24 24" fill="none" xmlns="http://www.w3.org/2000/svg">
<path fill-rule="evenodd" clip-rule="evenodd" d="M4.49996 3.24286C3.67154 3.24286 2.99997 3.91443 2.99997 4.74286V19.7428C2.99997 20.5712 3.67154 21.2428 4.49996 21.2428H19.4999C20.3283 21.2428 20.9999 20.5712 20.9999 19.7428V4.74286C20.9999 3.91443 20.3283 3.24286 19.4999 3.24286H4.49996ZM8.52072 7.24557C8.52635 8.20182 7.81057 8.79104 6.96119 8.78682C6.16103 8.7826 5.46353 8.14557 5.46775 7.24698C5.47197 6.40182 6.13994 5.7226 7.0076 5.74229C7.88791 5.76198 8.52635 6.40745 8.52072 7.24557ZM12.2796 10.0046H9.75966H9.75825V18.5644H12.4216V18.3647C12.4216 17.9848 12.4213 17.6048 12.421 17.2247C12.4202 16.2109 12.4193 15.196 12.4245 14.1825C12.4259 13.9364 12.4371 13.6805 12.5004 13.4456C12.738 12.5681 13.527 12.0014 14.4073 12.1407C14.9726 12.2292 15.3466 12.5569 15.5041 13.0899C15.6012 13.4231 15.6448 13.7817 15.649 14.1291C15.6604 15.1767 15.6588 16.2243 15.6572 17.272C15.6566 17.6418 15.656 18.0118 15.656 18.3816V18.563H18.3279V18.3577C18.3279 17.9057 18.3277 17.4538 18.3274 17.0019C18.3269 15.8724 18.3263 14.7429 18.3293 13.613C18.3307 13.1025 18.2759 12.5991 18.1507 12.1055C17.9637 11.3714 17.577 10.7639 16.9484 10.3252C16.5026 10.013 16.0132 9.81194 15.4662 9.78945C15.4039 9.78685 15.3411 9.78347 15.278 9.78005C14.9983 9.76494 14.714 9.74958 14.4466 9.80351C13.6816 9.95678 13.0095 10.3069 12.5018 10.9242C12.4428 10.995 12.3851 11.0669 12.299 11.1742L12.2796 11.1985V10.0046ZM5.6816 18.5672H8.33238V10.0102H5.6816V18.5672Z" fill="black"/>
</svg>
