<svg width="20" height="17" viewBox="0 0 20 17" fill="none" xmlns="http://www.w3.org/2000/svg">
<path d="M16.6667 3.06173H1.33333V0.765431C1.33333 0.562427 1.26309 0.367736 1.13807 0.224189C1.01305 0.0806435 0.843477 0 0.666666 0C0.489856 0 0.320286 0.0806435 0.195262 0.224189C0.0702378 0.367736 0 0.562427 0 0.765431V16.0741C0 16.2771 0.0702378 16.4717 0.195262 16.6152C0.320286 16.7589 0.489856 16.8395 0.666666 16.8395C0.843477 16.8395 1.01305 16.7589 1.13807 16.6152C1.26309 16.4717 1.33333 16.2771 1.33333 16.0741V13.0123H18.6666V16.0741C18.6666 16.2771 18.7368 16.4717 18.862 16.6152C18.987 16.7589 19.1565 16.8395 19.3333 16.8395C19.5102 16.8395 19.6797 16.7589 19.8047 16.6152C19.9298 16.4717 20 16.2771 20 16.0741V6.88888C19.999 5.87421 19.6474 4.90142 19.0226 4.18393C18.3976 3.46646 17.5504 3.06286 16.6667 3.06173ZM1.33333 4.59259H7.33333V11.4815H1.33333V4.59259Z" fill="#C5C5C5"/>
</svg>
