<svg width="24" height="24" viewBox="0 0 24 24" fill="none" xmlns="http://www.w3.org/2000/svg">
<path fill-rule="evenodd" clip-rule="evenodd" d="M16.0001 3.24286H8.00008C5.23867 3.24286 3.0001 5.48143 3.0001 8.24285V16.2428C3.0001 19.0042 5.23867 21.2428 8.00008 21.2428H16.0001C18.7615 21.2428 21.0001 19.0042 21.0001 16.2428V8.24285C21.0001 5.48143 18.7615 3.24286 16.0001 3.24286ZM19.2501 16.2428C19.2446 18.0354 17.7927 19.4873 16.0001 19.4928H8.00008C6.20744 19.4873 4.75558 18.0354 4.75009 16.2428V8.24285C4.75558 6.4502 6.20744 4.99834 8.00008 4.99285H16.0001C17.7927 4.99834 19.2446 6.4502 19.2501 8.24285V16.2428ZM16.7501 8.49285C17.3024 8.49285 17.7501 8.04513 17.7501 7.49285C17.7501 6.94057 17.3024 6.49285 16.7501 6.49285C16.1978 6.49285 15.7501 6.94057 15.7501 7.49285C15.7501 8.04513 16.1978 8.49285 16.7501 8.49285ZM12.0001 7.74285C9.5148 7.74285 7.50009 9.75756 7.50009 12.2428C7.50009 14.7281 9.5148 16.7428 12.0001 16.7428C14.4854 16.7428 16.5001 14.7281 16.5001 12.2428C16.5028 11.0485 16.0295 9.90241 15.185 9.05793C14.3405 8.21344 13.1944 7.74019 12.0001 7.74285ZM9.25008 12.2428C9.25008 13.7616 10.4813 14.9928 12.0001 14.9928C13.5189 14.9928 14.7501 13.7616 14.7501 12.2428C14.7501 10.724 13.5189 9.49285 12.0001 9.49285C10.4813 9.49285 9.25008 10.724 9.25008 12.2428Z" fill="black"/>
</svg>
